<?xml version="1.0" standalone="no"?>
<!DOCTYPE svg PUBLIC "-//W3C//DTD SVG 20010904//EN"
 "http://www.w3.org/TR/2001/REC-SVG-20010904/DTD/svg10.dtd">
<svg version="1.0" xmlns="http://www.w3.org/2000/svg"
 width="600.000000pt" height="600.000000pt" viewBox="0 0 600.000000 600.000000"
 preserveAspectRatio="xMidYMid meet">
<metadata>
Created by potrace 1.13, written by Peter Selinger 2001-2015
</metadata>
<g transform="translate(0.000000,600.000000) scale(0.100000,-0.100000)"
fill="#000000" stroke="none">
<path d="M0 3000 l0 -3000 3000 0 3000 0 0 3000 0 3000 -3000 0 -3000 0 0
-3000z m1007 2861 c130 -66 450 -255 595 -352 477 -320 867 -660 1353 -1179
161 -172 442 -527 612 -773 42 -59 80 -106 86 -104 19 6 26 56 37 286 26 554
53 709 169 946 112 229 277 452 478 645 142 137 268 229 418 305 126 64 178
77 189 49 4 -11 11 -98 16 -194 20 -395 -32 -1026 -116 -1398 -84 -373 -202
-582 -510 -902 -50 -52 -96 -105 -102 -117 -10 -19 -1 -35 79 -144 104 -142
142 -204 192 -315 154 -342 176 -722 71 -1214 -33 -157 -71 -273 -104 -318
-23 -33 -44 -45 -146 -84 -159 -61 -621 -212 -762 -249 -77 -19 -138 -29 -189
-29 l-75 0 7 109 c9 132 3 155 -33 146 -14 -3 -173 -65 -355 -136 -181 -72
-336 -129 -345 -127 -24 5 -58 72 -83 163 -25 94 -23 164 11 294 12 46 19 89
17 96 -3 6 -45 26 -93 45 -349 131 -433 170 -584 271 -170 113 -293 256 -353
408 -25 64 -31 94 -35 188 -7 175 35 321 143 500 241 398 646 618 1320 717
l90 13 -365 183 c-525 262 -696 363 -887 523 -158 133 -404 401 -577 630 -101
135 -234 414 -281 594 -38 144 -79 521 -62 567 11 28 52 18 174 -43z m1283
-5136 c96 -46 199 -93 229 -104 l53 -22 112 39 c61 22 160 58 220 82 60 23
124 44 141 47 31 5 33 3 44 -41 21 -86 41 -301 42 -456 1 -174 -4 -210 -31
-210 -19 0 -121 67 -290 190 -113 83 -150 102 -210 108 -51 4 -156 -27 -335
-102 -60 -25 -118 -46 -127 -46 -22 0 -53 45 -67 95 -27 101 -39 468 -16 505
11 18 45 6 235 -85z m2140 -25 c40 -40 19 -144 -34 -168 -95 -43 -893 -202
-1015 -202 l-48 0 -12 57 c-13 65 -8 74 52 105 77 39 670 177 910 212 125 19
124 19 147 -4z"/>
<path d="M2362 2816 c-137 -45 -191 -181 -116 -289 62 -88 196 -118 299 -66
191 95 132 343 -87 364 -32 3 -70 -1 -96 -9z"/>
</g>
</svg>
