<?xml version="1.0" standalone="no"?>
<!DOCTYPE svg PUBLIC "-//W3C//DTD SVG 20010904//EN"
 "http://www.w3.org/TR/2001/REC-SVG-20010904/DTD/svg10.dtd">
<svg version="1.0" xmlns="http://www.w3.org/2000/svg"
 width="512.000000pt" height="512.000000pt" viewBox="0 0 512.000000 512.000000"
 preserveAspectRatio="xMidYMid meet">
<metadata>
Created by potrace 1.13, written by Peter Selinger 2001-2015
</metadata>
<g transform="translate(0.000000,512.000000) scale(0.100000,-0.100000)"
fill="#000000" stroke="none">
<path d="M2820 4034 c-165 -67 -406 -76 -790 -30 -388 47 -590 29 -724 -63
-59 -41 -119 -117 -141 -178 -28 -81 -23 -77 -126 -85 -124 -9 -185 -28 -181
-54 9 -51 87 -95 176 -98 57 -2 62 -4 75 -31 8 -17 17 -81 21 -155 6 -110 10
-131 34 -177 26 -48 29 -62 35 -220 6 -153 9 -173 31 -213 26 -47 80 -90 112
-90 11 0 32 14 47 31 l28 30 6 -53 c10 -84 8 -183 -4 -195 -13 -13 -5 -43 11
-43 21 0 103 96 128 150 21 43 26 70 26 125 -1 76 -23 145 -48 145 -8 0 -35
-24 -61 -52 -53 -61 -54 -41 -3 50 34 61 63 84 175 142 126 64 178 144 218
335 11 53 28 1 22 -69 -9 -114 -59 -204 -149 -273 l-27 -20 15 -89 c23 -129
15 -194 -45 -370 -28 -83 -51 -168 -51 -189 0 -36 1 -35 39 41 38 75 105 163
117 152 3 -3 -12 -32 -32 -64 -21 -33 -52 -90 -68 -129 -28 -64 -31 -79 -31
-185 0 -108 2 -119 32 -182 33 -71 63 -92 90 -65 13 13 14 25 4 81 -13 72 -2
200 24 291 40 141 197 295 325 320 33 6 31 4 -20 -26 -80 -47 -179 -151 -223
-235 -50 -97 -67 -175 -67 -319 0 -142 -11 -172 -58 -154 -69 26 -144 134
-178 258 -9 33 -23 62 -30 65 -8 3 -91 8 -186 11 -121 4 -198 12 -256 26 -80
20 -84 20 -120 2 -52 -25 -64 -67 -40 -138 32 -96 41 -190 33 -345 -14 -246
-14 -246 87 -395 91 -133 118 -165 139 -165 29 0 39 39 39 159 0 128 -14 157
-82 167 -54 9 -71 42 -41 83 20 26 21 37 16 172 -5 138 2 200 26 239 7 10 29
14 78 14 67 0 70 -2 207 -82 77 -45 175 -96 218 -114 67 -27 76 -34 65 -47
-60 -79 -267 -308 -315 -350 -40 -34 -70 -71 -88 -107 -26 -53 -26 -57 -11
-88 18 -39 50 -49 117 -36 25 5 171 9 326 10 252 0 287 2 338 20 74 25 169 76
196 105 l22 23 -52 30 c-28 16 -79 35 -111 42 l-60 13 -46 -52 c-41 -47 -49
-52 -76 -47 -17 4 -39 13 -48 22 -13 11 -27 14 -46 10 -15 -4 -46 -11 -68 -16
-22 -5 -89 -9 -150 -10 l-109 0 54 55 c30 31 96 81 145 112 214 132 417 301
508 423 14 19 29 31 33 28 9 -10 -50 -113 -98 -171 l-39 -47 25 -10 c62 -23
243 -33 385 -21 77 6 146 14 154 17 8 3 25 32 37 65 32 89 128 187 234 239
100 50 174 64 293 57 180 -10 288 -92 323 -246 14 -58 8 -178 -10 -244 -28
-96 -147 -169 -285 -175 -72 -3 -85 -1 -134 25 -64 33 -109 86 -117 135 -5 28
-1 40 20 64 25 28 25 28 26 6 0 -50 52 -113 120 -147 113 -58 294 22 331 145
17 55 -1 192 -35 265 -42 92 -142 145 -272 145 -385 0 -620 -382 -446 -725 13
-27 57 -82 96 -121 63 -63 80 -75 141 -94 89 -27 236 -37 332 -21 143 25 288
122 360 243 67 111 89 280 57 436 -17 85 -75 217 -126 288 -55 76 -280 246
-476 359 -46 26 -108 70 -138 97 -125 115 -256 307 -340 499 -25 57 -53 110
-62 116 -9 8 -16 28 -16 50 -1 29 -6 40 -23 48 -15 6 -24 22 -30 55 -7 38 -12
45 -30 42 -18 -3 -23 4 -30 40 -8 39 -12 43 -36 40 -22 -2 -28 2 -35 30 -7 28
-13 33 -35 30 -25 -3 -27 0 -27 36 0 50 -25 76 -46 48 -16 -23 -41 -15 -46 15
-4 27 -38 51 -45 32 -7 -19 -31 -15 -38 6 -3 10 -15 27 -26 37 -20 18 -21 18
-35 -1 -13 -17 -16 -18 -24 -5 -5 8 -10 20 -10 27 0 7 -9 17 -20 23 -17 9 -20
8 -20 -10 0 -28 -13 -25 -38 10 -28 38 -52 39 -52 3 l0 -27 -28 27 c-35 34
-52 34 -52 1 0 -17 -12 -36 -35 -57 -32 -28 -35 -35 -30 -67 l6 -36 -68 4
c-109 6 -122 18 -48 46 48 19 91 62 101 103 10 38 -5 45 -79 34 -36 -5 -75 -7
-87 -4 -39 10 -20 52 37 82 50 26 120 28 411 14 596 -29 945 4 1167 112 97 47
155 94 155 126 0 29 -34 24 -101 -16 -172 -105 -497 -158 -818 -135 -177 13
-232 24 -171 33 19 3 87 11 150 17 129 13 325 59 373 88 37 21 46 47 20 54
-10 2 -43 -6 -73 -18z m-1065 -114 c25 -10 17 -13 -80 -35 -97 -22 -172 -58
-222 -108 -33 -32 -46 -38 -55 -29 -18 18 37 90 95 126 74 46 206 69 262 46z
m274 -637 c21 -79 33 -221 27 -308 -11 -171 -55 -277 -154 -373 -36 -34 -66
-61 -68 -59 -2 2 16 39 41 83 115 202 157 438 118 662 -8 48 23 44 36 -5z"/>
<path d="M3147 2916 c-3 -8 18 -32 56 -62 68 -55 125 -132 153 -208 15 -41 19
-78 19 -184 l0 -133 70 -51 c39 -28 99 -76 134 -105 l63 -54 73 75 c168 173
331 227 471 156 93 -47 105 -38 55 43 -111 174 -294 232 -527 168 l-64 -18
-11 41 c-16 57 -63 149 -100 190 -46 53 -133 102 -233 130 -98 29 -151 33
-159 12z"/>
</g>
</svg>
